<svg xmlns="http://www.w3.org/2000/svg" id="logoname" width="1447" height="300" viewBox="0 0 1447 300" fill="currentColor">
  <path d="M913.336 1.86719C892.178 1.86726 888.444 13.6903 883.466 36.7148L847.373 206.601C845.195 216.557 847.374 221.535 856.708 221.535H889.69C918.426 221.535 929.185 218.576 947.46 192.812C947.326 190.749 947.258 188.603 947.258 186.376C947.258 130.681 989.263 59.7403 1044.65 59.7402C1058.03 59.7402 1068.61 63.7846 1074.52 72.8076L1087.59 61.6064H1088.04C1090.05 60.3483 1092.17 59.7402 1094.37 59.7402C1119.89 59.7408 1140.42 141.571 1140.42 203.178C1140.42 216.557 1139.49 227.136 1137.31 236.159C1163.76 200.066 1184.92 155.261 1184.92 107.345C1184.92 88.365 1180.56 72.8083 1170.29 65.3408V63.4736L1185.54 59.7402C1192.21 65.0783 1196.02 72.9603 1197.65 82.3633C1208.32 67.1921 1218.39 59.7405 1225.43 59.7402C1236.01 59.7402 1236.64 70.941 1232.9 88.9873L1215.79 168.641C1239.75 103.923 1275.84 59.7404 1305.09 59.7402C1331.53 59.7402 1326.87 88.6762 1319.4 121.035L1301.98 197.266C1300.11 205.977 1297.93 214.69 1303.22 214.69C1306.59 214.69 1313.03 210.152 1322.91 198.739C1321.76 193.541 1321.15 187.665 1321.15 181.086C1321.15 129.436 1359.11 59.7402 1416.67 59.7402C1438.14 59.7404 1446.54 69.0743 1446.54 81.8311C1446.54 110.456 1404.85 128.192 1341.37 148.105C1339.2 157.751 1337.95 167.396 1337.95 177.353C1337.95 205.978 1348.53 218.424 1366.58 218.424C1386.8 218.424 1408.89 203.178 1427.56 180.153L1429.43 181.397C1407.34 214.69 1383.69 230.247 1360.35 230.247C1343.61 230.247 1330.49 222.185 1324.58 204.746C1313.12 221.028 1301.95 230.247 1293.57 230.247C1282.37 230.247 1280.82 219.668 1285.17 201L1304.15 118.857C1309.75 94.5882 1313.49 73.4309 1295.75 73.4307C1264.64 73.4307 1221.08 145.305 1203.65 226.514H1188.1L1216.41 92.7217C1218.28 84.0097 1220.14 75.297 1214.54 75.2969C1211.2 75.2969 1205.79 80.0802 1198.42 88.7344C1198.54 90.5417 1198.61 92.3915 1198.61 94.2773C1198.61 168.641 1119.27 299.321 1060.46 299.321C1050.81 299.321 1041.17 295.899 1032.77 286.876L1040.23 273.496H1042.1C1049.57 284.075 1059.21 288.12 1069.79 288.12C1094.37 288.12 1124.87 266.651 1124.87 209.09C1124.87 158.684 1106.2 75.2969 1089.08 75.2969C1088.17 75.2969 1087.27 75.5383 1086.37 76.0312L1060.51 197.266C1059.58 201.622 1057.09 213.135 1062.69 213.135C1068.92 213.134 1082.3 198.821 1094.43 182.331L1095.99 183.575C1080.43 212.823 1063.94 230.247 1051.49 230.247C1039.05 230.247 1041.22 213.446 1044.02 201L1053.67 155.884C1034.38 203.8 1003.58 230.247 977.75 230.247C963.473 230.247 953.629 221.895 949.476 205.95L942.273 226.514H803.502L803.814 224.646C824.971 224.646 828.705 212.823 833.683 189.799L866.042 36.7148C871.02 13.6904 872.265 1.8673 851.108 1.86719L851.418 0H913.648L913.336 1.86719ZM37.1682 194.787H116.911V226.211H0.000183105V0.836914H37.1682V194.787ZM161.911 226.211H124.743V0.836914H161.911V226.211ZM209.239 194.787H288.982V226.211H172.07V0.836914H209.239V194.787ZM333.983 194.787H413.725V226.211H296.814V0.836914H333.983V194.787ZM458.726 226.211H421.557V0.836914H458.726V226.211ZM636.465 226.211H598.621L584.429 169.783H518.54L504.687 226.211H469.208L534.421 0.836914H576.32L636.465 226.211ZM762.208 163.363V0.836914H793.294V226.211H758.491L675.37 45.7764V226.211H644.283V0.836914H688.21L762.208 163.363ZM1040.29 64.0957C1000.78 64.0957 964.683 128.192 964.683 180.153C964.683 205.045 973.083 219.046 987.707 219.046C1013.53 219.046 1050.25 173.93 1063 112.013C1063.94 107.657 1064.56 103.611 1064.56 97.3887C1064.56 78.7201 1059.27 64.0959 1040.29 64.0957ZM1411.69 64.0957C1384.62 64.0957 1354.44 100.189 1342.62 142.505C1398.94 123.214 1429.12 110.145 1429.12 82.7646C1429.12 72.8081 1425.07 64.0958 1411.69 64.0957ZM525.974 140.387H576.995L551.654 37.3291L525.974 140.387Z" fill="currentColor"/>
</svg>